# Blender 3.4.1
# www.blender.org
mtllib traintemp.mtl
o Cube
v -0.493570 -1.075971 1.000000
v -0.665564 0.505039 0.950677
v -0.493570 -1.075971 -3.000000
v -0.665564 0.505039 -2.950677
v 0.493570 -1.075971 1.000000
v 0.665564 0.505039 0.950677
v 0.493570 -1.075971 -3.000000
v 0.665564 0.505039 -2.950677
v -0.723837 -0.515584 1.000000
v -0.723837 -0.515584 -3.000000
v 0.723837 -0.515584 -3.000000
v 0.723837 -0.515584 1.000000
v -0.226187 0.670026 0.887738
v -0.226187 0.670026 -2.887738
v 0.226187 0.670026 0.887738
v 0.226187 0.670026 -2.887738
vn -0.9984 0.0570 -0.0000
vn -0.0000 0.0483 -0.9988
vn 0.9984 0.0570 -0.0000
vn -0.0000 0.0483 0.9988
vn -0.0000 -1.0000 -0.0000
vn 0.3515 0.9362 -0.0000
vn -0.0000 -0.0000 1.0000
vn 0.9250 -0.3801 -0.0000
vn -0.0000 -0.0000 -1.0000
vn -0.9250 -0.3801 -0.0000
vn -0.0000 1.0000 -0.0000
vn -0.3515 0.9362 -0.0000
vn -0.0000 0.3564 0.9343
vn -0.0000 0.3564 -0.9343
vt 0.959446 0.999797
vt 0.772876 0.305906
vt 0.984602 0.108118
vt 0.972724 0.701995
vt 0.474760 0.256817
vt 0.013134 0.565182
vt 0.431114 0.999797
vt 0.772876 0.587812
vt 0.021411 0.108117
vt 0.033287 0.701995
vt 0.474760 0.636902
vt 0.542341 0.565182
vt 0.959446 0.802291
vt 0.772876 0.587650
vt 0.020657 0.103417
vt 0.032534 0.697303
vt 0.474760 0.636739
vt 0.013163 0.284244
vt 0.431114 0.802291
vt 0.983861 0.103417
vt 0.772876 0.306069
vt 0.474760 0.256979
vt 0.971984 0.697303
vt 0.542370 0.284244
vt 0.667289 0.240185
vt 0.984602 0.329108
vt 0.667289 0.653534
vt 0.021410 0.329107
vt 0.983861 0.324410
vt 0.667289 0.240347
vt 0.667289 0.653372
vt 0.020657 0.324410
vt 0.036540 0.468247
vt 0.518289 0.471634
vt 0.037215 0.377791
vt 0.518964 0.381178
s 0
usemtl trainside
f 9/26/1 2/4/1 4/10/1 10/28/1
f 10/27/2 4/11/2 8/22/2 11/30/2
f 11/29/3 8/23/3 6/16/3 12/32/3
f 12/31/4 6/17/4 2/5/4 9/25/4
f 3/7/5 7/19/5 5/13/5 1/1/5
f 6/18/6 8/24/6 16/36/6 15/35/6
f 5/14/7 12/31/7 9/25/7 1/2/7
f 7/20/8 11/29/8 12/32/8 5/15/8
f 3/8/9 10/27/9 11/30/9 7/21/9
f 1/3/10 9/26/10 10/28/10 3/9/10
f 16/36/11 14/34/11 13/33/11 15/35/11
f 4/12/12 2/6/12 13/33/12 14/34/12
f 2/6/13 6/18/13 15/35/13 13/33/13
f 8/24/14 4/12/14 14/34/14 16/36/14
