# Blender 3.4.1
# www.blender.org
mtllib clocktower.mtl
o Cube
v 1.000000 1.000000 -1.000000
v 1.942978 -1.000000 -1.942978
v 1.000000 1.000000 1.000000
v 1.942978 -1.000000 1.942978
v -1.000000 1.000000 -1.000000
v -1.942978 -1.000000 -1.942978
v -1.000000 1.000000 1.000000
v -1.942978 -1.000000 1.942978
v -1.942978 -1.000000 0.000000
v 1.000000 1.000000 0.000000
v -1.000000 1.000000 0.000000
v 1.942978 -1.000000 0.000000
v -1.942978 -1.000000 1.711055
v 1.000000 1.000000 0.880635
v -1.000000 1.000000 0.880635
v 1.942978 -1.000000 1.711055
v -1.000000 1.000000 -0.886951
v 1.942978 -1.000000 -1.723326
v -1.942978 -1.000000 -1.723326
v 1.000000 1.000000 -0.886951
v 1.516863 -1.000000 -1.942978
v 0.780690 1.000000 1.000000
v 1.516863 -1.000000 1.942978
v 0.780690 1.000000 -1.000000
v 1.516863 -1.000000 0.000000
v 0.780690 1.000000 0.000000
v 1.516863 -1.000000 1.711055
v 0.780690 1.000000 0.880635
v 0.780690 1.000000 -0.886951
v 1.516863 -1.000000 -1.723326
v -1.699564 -1.000000 -1.942978
v -0.874721 1.000000 1.000000
v -1.699564 -1.000000 0.000000
v -1.699564 -1.000000 1.711055
v -1.699564 -1.000000 -1.723326
v -1.699564 -1.000000 1.942978
v -0.874721 1.000000 -1.000000
v -0.874721 1.000000 0.000000
v -0.874721 1.000000 0.880635
v -0.874721 1.000000 -0.886951
v -0.874721 5.545578 0.000000
v 0.780690 5.545578 0.000000
v -0.874721 5.545578 0.880635
v 0.780690 5.545578 0.880635
v -0.874721 5.545578 -0.886951
v 0.780690 5.545578 -0.886951
v -1.087567 5.856977 0.000541
v 0.993535 5.856977 0.000541
v -1.087567 5.856977 1.107634
v 0.993535 5.856977 1.107634
v -1.087567 5.856977 -1.114491
v 0.993535 5.856977 -1.114491
v -1.087567 7.156625 0.000541
v 0.993535 7.156625 0.000541
v -1.087567 7.156625 1.107634
v 0.993535 7.156625 1.107634
v -1.087567 7.156625 -1.114491
v 0.993535 7.156625 -1.114491
v -0.810053 8.483953 -0.000164
v 0.716021 8.483953 -0.000164
v -0.810053 7.582233 0.811667
v 0.716021 7.582233 0.811667
v -0.810053 7.582233 -0.817818
v 0.716021 7.582233 -0.817818
vn -0.0000 1.0000 -0.0000
vn -0.0000 0.4265 0.9045
vn -0.9045 0.4265 -0.0000
vn -0.0000 -1.0000 -0.0000
vn 0.9045 0.4265 -0.0000
vn -0.0000 0.4265 -0.9045
vn -0.0000 -0.0000 1.0000
vn -1.0000 -0.0000 -0.0000
vn 0.8256 -0.5643 -0.0000
vn -0.8256 -0.5643 -0.0000
vn 1.0000 -0.0000 -0.0000
vn -0.0000 -0.0000 -1.0000
vn -0.0000 -0.5900 -0.8074
vn -0.0000 -0.5891 0.8081
vn 0.9350 0.3214 -0.1499
vn -0.9350 0.3214 -0.1499
vn -0.0000 0.6691 0.7432
vn -0.0000 0.6717 -0.7408
vn -0.0000 0.5718 -0.8204
vn -0.9348 0.3215 0.1511
vn 0.9348 0.3215 0.1511
vn -0.0000 0.5709 0.8210
vt 0.125126 1.530566
vt 0.674982 0.914755
vt -0.178708 1.487067
vt -0.140632 0.920497
vt 0.315140 0.000384
vt 0.931288 0.300655
vt 0.121349 0.919030
vt 0.683505 2.141001
vt -0.178708 2.136318
vt 0.315140 0.315140
vt -0.144409 0.308960
vt 0.939811 1.526901
vt 0.669287 0.299498
vt 0.470543 1.487067
vt 0.678759 1.526291
vt 0.935045 0.909567
vt 0.935065 0.912191
vt 0.000384 0.000384
vt 0.470543 2.136318
vt 0.129872 2.145276
vt 0.115654 0.303772
vt -0.135886 1.535206
vt -0.140652 0.917872
vt 0.000384 0.315140
vt 0.397196 0.913720
vt 0.000384 0.157762
vt 0.398166 0.916892
vt -0.178708 1.811692
vt 0.470543 1.811692
vt 0.392470 0.301635
vt 0.393440 0.304808
vt 0.315140 0.157762
vt -0.076452 0.917377
vt 0.000384 0.296355
vt 0.154391 0.918775
vt -0.178708 2.097569
vt 0.148696 0.303517
vt 0.470543 2.097569
vt -0.080209 0.308465
vt 0.315140 0.296355
vt 0.470543 1.523766
vt 0.637993 0.299739
vt 0.315140 0.018175
vt 0.870485 0.301124
vt 0.874242 0.910036
vt 0.000384 0.018175
vt 0.643689 0.914997
vt -0.178708 1.523765
vt 0.280625 0.000384
vt -0.022676 0.919586
vt 0.622797 2.141469
vt -0.107514 2.136318
vt 0.280625 0.315140
vt 0.821856 1.527811
vt 0.185835 1.530097
vt -0.107514 1.487067
vt 0.280625 0.157762
vt -0.107514 1.811692
vt 0.750004 -0.172440
vt 0.280625 0.296355
vt 0.124097 1.186649
vt -0.107514 2.097569
vt 0.506223 -0.173027
vt -0.107514 1.523765
vt 0.995534 -0.171849
vt 0.510562 1.155529
vt 0.280625 0.018175
vt 0.867684 0.912711
vt 0.020100 0.000384
vt 0.164551 2.145008
vt 0.429875 2.136318
vt 0.020100 0.157762
vt 0.020100 0.296355
vt 0.020100 0.018175
vt 0.020100 0.315140
vt -0.068505 1.534686
vt 0.644080 1.526559
vt 0.429875 1.487067
vt 0.429875 1.811692
vt 0.259817 -0.173620
vt 0.582276 1.195259
vt 0.429875 2.097569
vt 0.503598 -0.173033
vt 0.429875 1.523766
vt 0.014287 -0.174210
vt 0.052384 1.146923
vt 0.256789 1.084706
vt 0.435623 -0.752365
vt 0.746976 1.085885
vt -0.934035 1.776752
vt 0.605916 -0.062848
vt 0.500570 1.085292
vt 0.435623 -0.466488
vt -0.809976 -0.676024
vt 0.147738 -0.071457
vt 0.503195 1.085299
vt -0.934035 2.062629
vt -0.809976 -1.213413
vt 0.011260 1.084115
vt 0.435623 -1.040292
vt 0.076015 -0.111184
vt -0.556603 -0.676024
vt -0.934035 1.488825
vt 0.992506 1.086476
vt 0.534193 -0.102578
vt -0.556603 -1.213413
vt 0.313177 -0.752189
vt 1.244248 0.922415
vt -0.811589 1.776928
vt 0.301981 0.498819
vt 0.937786 0.924782
vt 0.313177 -0.392799
vt -0.684880 -0.606929
vt 0.902293 0.948897
vt -0.077259 0.496976
vt -0.811589 2.136318
vt -0.684880 -1.282508
vt 0.094569 0.955134
vt 0.313177 -1.114157
vt -0.681803 -0.606929
vt 1.552907 0.920032
vt 0.894473 -0.063630
vt -0.811589 1.414960
vt -0.681803 -1.282508
vt 0.683940 0.500675
vt 0.086750 -0.057393
vt 1.241472 0.562652
vt -0.621986 1.774668
vt 0.299817 0.944020
vt 1.684994 -1.021583
vt 0.935008 0.565018
vt 0.898398 0.444473
vt -0.637147 1.415597
vt -0.808511 2.136318
vt -0.079423 0.942177
vt 0.090674 0.450710
vt 1.230876 -1.038133
vt -0.808511 1.460739
vt -0.637147 2.136318
vt 1.550130 0.560268
vt 0.898368 0.440793
vt 0.607117 -0.392798
vt 2.142153 -1.043395
vt 0.681777 0.945876
vt 0.090644 0.447029
vt 0.607117 -1.068377
vt -0.575662 0.917117
vt 0.470542 0.988586
vt -0.181785 1.774905
vt -0.575662 1.412519
vt 0.470542 1.483989
vt 1.688508 -0.464998
vt -0.181785 0.917117
vt -0.468302 1.504632
vt -0.640224 2.046229
vt -0.181785 1.412519
vt 1.344684 -0.825294
vt -0.640224 1.550827
vt -0.468319 2.047004
vt 0.075398 0.988586
vt 0.438700 -0.482886
vt 2.030456 -0.829278
vt 0.075398 1.483989
vt 0.438700 -0.978289
s 0
usemtl Material
f 27/60/4 16/40/4 4/10/4 23/53/4
f 30/67/4 18/43/4 12/32/4 25/57/4
f 25/57/4 12/32/4 16/40/4 27/60/4
f 21/49/4 2/5/4 18/43/4 30/67/4
f 31/69/4 21/49/4 30/67/4 35/74/4
f 33/72/4 25/57/4 27/60/4 34/73/4
f 35/74/4 30/67/4 25/57/4 33/72/4
f 34/73/4 27/60/4 23/53/4 36/75/4
f 13/34/4 34/73/4 36/75/4 8/24/4
f 19/46/4 35/74/4 33/72/4 9/26/4
f 9/26/4 33/72/4 34/73/4 13/34/4
f 6/18/4 31/69/4 35/74/4 19/46/4
usemtl redbrick
f 36/76/2 32/70/2 7/20/2 8/22/2
f 19/45/3 17/42/3 5/13/3 6/16/3
f 16/39/5 14/35/5 3/7/5 4/11/5
f 21/50/6 24/55/6 1/1/6 2/4/6
f 18/44/5 20/47/5 10/27/5 12/31/5
f 13/33/3 15/37/3 11/30/3 9/25/3
f 8/23/3 7/21/3 15/37/3 13/33/3
f 12/31/5 10/27/5 14/35/5 16/39/5
f 2/6/5 1/2/5 20/47/5 18/44/5
f 9/25/3 11/30/3 17/42/3 19/45/3
f 31/68/6 37/77/6 24/55/6 21/50/6
f 4/12/2 3/8/2 22/51/2 23/54/2
f 6/17/6 5/15/6 37/77/6 31/68/6
f 39/81/7 28/61/7 44/95/7 43/91/7
f 40/85/8 38/80/8 41/87/8 45/99/8
f 23/54/2 22/51/2 32/70/2 36/76/2
f 38/80/8 39/83/8 43/92/8 41/87/8
f 26/59/11 29/65/11 46/104/11 42/89/11
f 28/63/11 26/59/11 42/89/11 44/96/11
f 29/66/12 40/86/12 45/101/12 46/105/12
f 50/115/11 48/110/11 54/129/11 56/135/11
f 47/108/8 49/111/8 55/131/8 53/127/8
f 49/114/7 50/118/7 56/136/7 55/132/7
f 51/121/8 47/108/8 53/127/8 57/140/8
f 48/110/11 52/125/11 58/144/11 54/129/11
f 52/126/12 51/122/12 57/141/12 58/145/12
usemtl slate
f 39/82/1 15/38/1 7/19/1 32/71/1
f 40/84/1 17/41/1 11/29/1 38/79/1
f 38/79/1 11/29/1 15/38/1 39/82/1
f 37/78/1 5/14/1 17/41/1 40/84/1
f 1/3/1 24/56/1 29/64/1 20/48/1
f 10/28/1 26/58/1 28/62/1 14/36/1
f 20/48/1 29/64/1 26/58/1 10/28/1
f 14/36/1 28/62/1 22/52/1 3/9/1
f 24/56/1 37/78/1 40/84/1 29/64/1
f 28/62/1 39/82/1 32/71/1 22/52/1
f 42/90/9 46/103/9 52/123/9 48/109/9
f 45/100/10 41/88/10 47/107/10 51/119/10
f 46/106/13 45/102/13 51/120/13 52/124/13
f 41/88/10 43/93/10 49/112/10 47/107/10
f 44/97/9 42/90/9 48/109/9 50/116/9
f 43/94/14 44/98/14 50/117/14 49/113/14
f 54/130/15 58/143/15 64/162/15 60/152/15
f 57/139/16 53/128/16 59/149/16 63/159/16
f 60/150/17 59/147/17 61/153/17 62/156/17
f 64/163/18 63/160/18 59/148/18 60/151/18
f 58/146/19 57/142/19 63/161/19 64/164/19
f 53/128/20 55/133/20 61/154/20 59/149/20
f 56/137/21 54/130/21 60/152/21 62/157/21
f 55/134/22 56/138/22 62/158/22 61/155/22
